<?xml version="1.0" encoding="utf-8"?>
<svg version="1.1"
    xmlns="http://www.w3.org/2000/svg"
    xmlns:xlink="http://www.w3.org/1999/xlink"
    xml:space="preserve"
    x="0px" y="0px" viewBox="0 0 2000 2000">
<style>
    * {
        fill: none;
        stroke: black;
        stroke-width: 2;
    }
</style>
<defs>
    <path id="human" d="M495.126,25.5c27.473,0,58.611,16.707,72.155,41.192c7.489,13.538,0.971,81.835,5.558,85.015
    	c9.976,6.916,14.099-11.553,15.9,12.099c1.612,21.168-29.734,48.975-35.077,70.222c-14.391,57.226,14.73,86.187,61.408,109.211
    	c45.153,22.272,93.126,23.616,113.876,76.024c18.063,45.621,10.859,104.046,15.994,152.662
    	c10.391,98.365,45.774,192.939,71.045,288.673c13.405,50.784,43.678,83.68,85.591,115.115c10.127,7.595,50.039,33.433,45.121,41.466
    	c-9.549,15.595-44.065-9.806-56.219-15.304c0,12.376,50.108,88.528,31.928,98.312c-18.655,10.04-23.242-52.297-37.031-50.436
    	c-11.5,1.552,26.427,86.345,9.799,88.446c-24.738,3.125-21.549-81.757-36.221-78.831c-11.831,2.36,22.004,73.742,2.9,81.528
    	c-21.04,8.574-16.389-78.855-33.064-76.907c-9.431,1.102,0.259,67.772-19.497,58.032c-11.472-5.655-2.508-98.095-7.927-117.37
    	c-13.184-46.891-38.853-90.848-60.777-134.016c-39.806-78.378-82.419-172.107-82.697-262.179
    	c-14.961,0.723-24.086,108.273-23.258,120.08c2.99,42.616,22.398,82.86,27.187,126.179c4.031,36.456,21.025,69.102,26.255,105.557
    	c6.801,47.409,5.715,95.937,4.432,143.653c-1.972,73.38-13.814,144.561-19.557,217.424c-7.058,89.543,23.303,168.412,20.025,256.757
    	c-3.094,83.391-36.769,177.359-16.02,260.022c6.63,26.412,55.582,72.003,50.193,97.928c-5.594,26.908-53.073,28.621-71.918,24.207
    	c-57.211-13.4-38.388-127.641-44.769-177.316c-10.103-78.648-39.33-157.164-42.576-236.44c-1.979-48.33,2.351-84.441-10.318-131.901
    	c-10.641-39.861-9.48-79.159-12.95-119.751c-3.662-42.84-13.188-86.128-20.79-128.435c-4.031-22.434-8.097-44.97-12.661-67.309
    	c-0.737-3.609-11.082-46.61-16.157-46.61h0.107c-5.075,0-15.419,43.001-16.157,46.61c-4.564,22.34-8.63,44.796-12.661,67.23
    	c-7.602,42.307-17.128,85.635-20.79,128.475c-3.47,40.592-2.31,79.91-12.95,119.771c-12.669,47.46-8.339,83.581-10.318,131.911
    	c-3.246,79.276-32.474,157.798-42.576,236.445c-6.381,49.675,12.443,163.919-44.769,177.318
    	c-18.846,4.414-66.325,2.702-71.918-24.206c-5.389-25.925,43.563-71.515,50.193-97.927c20.749-82.662-12.926-176.63-16.02-260.021
    	c-3.278-88.345,27.083-167.214,20.025-256.757c-5.743-72.863-17.585-144.044-19.558-217.424
    	c-1.283-47.716-2.368-96.244,4.432-143.653c5.229-36.456,22.224-69.101,26.255-105.557c4.789-43.318,24.197-83.562,27.187-126.179
    	c0.828-11.807-8.296-119.358-23.258-120.08c-0.278,90.072-42.891,183.801-82.697,262.179
    	c-21.924,43.168-47.593,87.125-60.777,134.016c-5.42,19.275,3.545,111.714-7.927,117.37c-19.756,9.74-10.066-56.93-19.497-58.032
    	c-16.676-1.948-12.024,85.481-33.064,76.907c-19.103-7.785,14.732-79.168,2.9-81.528c-14.672-2.926-11.483,81.956-36.221,78.831
    	c-16.628-2.101,21.299-86.894,9.799-88.446c-13.789-1.861-18.376,60.476-37.031,50.436c-18.18-9.784,31.928-85.936,31.928-98.312
    	c-12.154,5.498-46.67,30.899-56.219,15.304c-4.919-8.032,34.994-33.871,45.121-41.466c41.913-31.435,72.186-64.332,85.591-115.116
    	c25.271-95.735,60.654-190.31,71.045-288.675c5.136-48.616-2.069-107.044,15.994-152.665c20.75-52.408,68.723-53.76,113.876-76.032
    	c46.678-23.024,75.799-52.001,61.408-109.227c-5.343-21.248-36.69-49.085-35.077-70.253c1.802-23.651,5.924-5.245,15.9-12.161
    	c4.587-3.18-1.93-71.352,5.558-84.89C436.389,42.207,467.527,25.5,495,25.5H495.126z"/>
</defs>
<use xlink:href="#human"/>
<use xlink:href="#human" transform="translate(1000 0)"/>
</svg>
