<?xml version="1.0" encoding="utf-8"?>
<svg version="1.1"
    xmlns="http://www.w3.org/2000/svg"
    xmlns:xlink="http://www.w3.org/1999/xlink"
    xml:space="preserve"
    x="0px" y="0px" viewBox="0 0 120 120">
<style type="text/css">
    @media(prefers-color-scheme: dark) {
        * { background-color: #fff; }
    }
	.grey { fill: #6d6e71; }
	.blue { fill: #00306f; }
</style>
<path class="grey"
    d="M5.514,89.5H1.471l7.816-59.791c0.239-1.826,0.733-3.129,1.482-3.908c0.748-0.778,1.916-1.168,3.504-1.168
	c1.377,0,2.478,0.345,3.302,1.033c0.823,0.689,1.444,1.782,1.864,3.279l16.352,55.568c0.149,0.449,0.321,0.809,0.517,1.078
	c0.194,0.27,0.396,0.404,0.606,0.404c0.209,0,0.404-0.119,0.584-0.359c0.18-0.239,0.344-0.599,0.494-1.078l16.396-55.613
	c0.419-1.467,1.048-2.553,1.887-3.257c0.838-0.703,1.961-1.056,3.369-1.056c1.557,0,2.702,0.39,3.437,1.168
	c0.733,0.779,1.205,2.066,1.415,3.863L72.312,89.5h-4.043l-7.816-60.016c-0.03-0.389-0.143-0.726-0.337-1.011
	c-0.195-0.284-0.412-0.427-0.651-0.427c-0.3,0-0.532,0.09-0.696,0.27c-0.165,0.18-0.337,0.614-0.517,1.303L42.17,84.244
	c-0.629,2.097-1.348,3.587-2.156,4.47s-1.842,1.325-3.1,1.325c-1.288,0-2.336-0.442-3.145-1.325s-1.513-2.373-2.111-4.47
	L15.576,29.619c-0.18-0.688-0.353-1.123-0.517-1.303c-0.165-0.18-0.397-0.27-0.696-0.27c-0.24,0-0.457,0.143-0.651,0.427
	c-0.195,0.285-0.308,0.622-0.337,1.011L5.514,89.5z"/>
<path class="blue"
    d="M75.455,89.499V47.991c0-7.816,1.707-13.769,5.121-17.856s8.385-6.132,14.914-6.132
	c5.36,0,9.845,1.61,13.454,4.829c3.608,3.22,5.413,7.165,5.413,11.837c0,3.385-0.943,6.305-2.83,8.76
	c-1.887,2.456-4.657,4.312-8.311,5.57c4.582,1.108,8.138,3.152,10.669,6.132c2.53,2.98,3.796,6.581,3.796,10.804
	c0,5.211-1.857,9.441-5.57,12.69c-3.714,3.25-8.58,4.874-14.6,4.874H82.732v-3.594h14.33c5.091,0,9.097-1.242,12.017-3.729
	c2.92-2.485,4.38-5.899,4.38-10.242c0-4.821-1.527-8.468-4.582-10.938S101.3,57.29,95.31,57.29H82.732v-3.324h11.5
	c4.701,0,8.527-1.205,11.478-3.616c2.949-2.41,4.425-5.518,4.425-9.321c0-3.982-1.355-7.247-4.065-9.793
	c-2.711-2.545-6.162-3.818-10.354-3.818c-5.182,0-9.18,1.7-11.994,5.099c-2.815,3.399-4.223,8.229-4.223,14.487v42.496H75.455z"/>
</svg>
