<?xml version="1.0" encoding="utf-8"?>
<svg version="1.1"
    xmlns="http://www.w3.org/2000/svg"
    xmlns:xlink="http://www.w3.org/1999/xlink"
    xml:space="preserve"
    x="0px" y="0px" viewBox="0 0 225 45">
<style type="text/css">
	.grey { fill: #6d6e71; }
	.blue { fill: #00306f; }
	.line { fill: none; stroke: #6d6e71; stroke-width: 0.75; }
</style>
<g class="grey">
	<path d="M3.965,43H1.504L6.262,6.605c0.146-1.111,0.446-1.904,0.902-2.379C7.62,3.753,8.331,3.516,9.297,3.516
		c0.838,0,1.508,0.21,2.01,0.629c0.501,0.42,0.879,1.085,1.135,1.996l9.953,33.824c0.091,0.273,0.196,0.492,0.314,0.656
		c0.118,0.164,0.241,0.246,0.369,0.246c0.127,0,0.246-0.072,0.355-0.219c0.109-0.146,0.209-0.364,0.301-0.656l9.98-33.852
		c0.255-0.893,0.638-1.554,1.148-1.982c0.51-0.428,1.194-0.643,2.051-0.643c0.948,0,1.645,0.237,2.092,0.711
		c0.446,0.475,0.733,1.258,0.861,2.352L44.625,43h-2.461L37.406,6.469c-0.019-0.236-0.087-0.441-0.205-0.615
		c-0.119-0.173-0.251-0.26-0.396-0.26c-0.183,0-0.324,0.055-0.424,0.164c-0.101,0.109-0.205,0.374-0.314,0.793l-9.789,33.25
		c-0.383,1.276-0.82,2.184-1.312,2.721s-1.121,0.807-1.887,0.807c-0.784,0-1.422-0.27-1.914-0.807s-0.921-1.444-1.285-2.721
		L10.09,6.551C9.98,6.132,9.875,5.867,9.775,5.758C9.675,5.648,9.534,5.594,9.352,5.594c-0.146,0-0.278,0.087-0.396,0.26
		C8.836,6.027,8.768,6.232,8.75,6.469L3.965,43z"/>
	<path d="M47.809,29.793c0-1.841,0.337-3.586,1.012-5.236c0.674-1.649,1.659-3.158,2.953-4.525
		c1.258-1.275,2.693-2.256,4.307-2.939s3.313-1.025,5.1-1.025c1.786,0,3.486,0.342,5.1,1.025s3.049,1.664,4.307,2.939
		c1.276,1.312,2.247,2.799,2.912,4.457c0.665,1.659,0.998,3.428,0.998,5.305c0,1.859-0.333,3.619-0.998,5.277
		c-0.666,1.659-1.636,3.145-2.912,4.457c-1.258,1.295-2.693,2.279-4.307,2.953s-3.313,1.012-5.1,1.012
		c-1.787,0-3.486-0.338-5.1-1.012s-3.049-1.658-4.307-2.953c-1.294-1.349-2.279-2.853-2.953-4.512
		C48.146,33.357,47.809,31.616,47.809,29.793z M50.215,29.738c0,3.245,1.062,5.988,3.186,8.23c2.124,2.242,4.717,3.363,7.779,3.363
		c3.044,0,5.624-1.125,7.738-3.377c2.114-2.251,3.172-4.99,3.172-8.217c0-3.263-1.058-6.011-3.172-8.244
		c-2.115-2.232-4.694-3.35-7.738-3.35c-3.062,0-5.656,1.121-7.779,3.363C51.276,23.75,50.215,26.494,50.215,29.738z"/>
	<path d="M101.753,3.844h2.297v24.418c0,1.951-0.146,3.623-0.438,5.018c-0.292,1.395-0.757,2.621-1.395,3.678
		c-1.294,2.097-2.935,3.71-4.922,4.84c-1.987,1.131-4.175,1.695-6.562,1.695c-3.828,0-6.996-1.294-9.502-3.883
		c-2.507-2.588-3.76-5.86-3.76-9.816c0-1.859,0.319-3.613,0.957-5.264c0.638-1.649,1.567-3.131,2.789-4.443
		c1.239-1.312,2.675-2.311,4.307-2.994c1.631-0.684,3.404-1.025,5.318-1.025c1.695,0,3.309,0.301,4.84,0.902s2.962,1.495,4.293,2.68
		v3.035c-1.312-1.494-2.726-2.606-4.238-3.336c-1.513-0.729-3.145-1.094-4.895-1.094c-3.172,0-5.792,1.094-7.861,3.281
		c-2.069,2.188-3.104,4.959-3.104,8.312c0,3.318,1.048,6.08,3.145,8.285c2.096,2.206,4.703,3.309,7.82,3.309
		c3.317,0,5.965-1.171,7.943-3.514c1.978-2.342,2.967-5.5,2.967-9.475V3.844z"/>
	<path d="M108.056,29.793c0-1.841,0.337-3.586,1.012-5.236c0.674-1.649,1.659-3.158,2.953-4.525
		c1.258-1.275,2.693-2.256,4.307-2.939s3.313-1.025,5.1-1.025c1.786,0,3.486,0.342,5.1,1.025s3.049,1.664,4.307,2.939
		c1.276,1.312,2.247,2.799,2.912,4.457c0.665,1.659,0.998,3.428,0.998,5.305c0,1.859-0.333,3.619-0.998,5.277
		c-0.666,1.659-1.636,3.145-2.912,4.457c-1.258,1.295-2.693,2.279-4.307,2.953s-3.313,1.012-5.1,1.012
		c-1.787,0-3.486-0.338-5.1-1.012s-3.049-1.658-4.307-2.953c-1.294-1.349-2.279-2.853-2.953-4.512
		C108.393,33.357,108.056,31.616,108.056,29.793z M110.462,29.738c0,3.245,1.062,5.988,3.186,8.23
		c2.124,2.242,4.717,3.363,7.779,3.363c3.044,0,5.624-1.125,7.738-3.377c2.114-2.251,3.172-4.99,3.172-8.217
		c0-3.263-1.058-6.011-3.172-8.244c-2.115-2.232-4.694-3.35-7.738-3.35c-3.062,0-5.656,1.121-7.779,3.363
		C111.523,23.75,110.462,26.494,110.462,29.738z"/>
</g>
<g class="blue">
	<path d="M154.816,43V17.734c0-4.758,1.039-8.381,3.117-10.869s5.104-3.732,9.078-3.732c3.263,0,5.992,0.98,8.189,2.939
		c2.196,1.96,3.295,4.361,3.295,7.205c0,2.061-0.574,3.838-1.723,5.332c-1.148,1.495-2.835,2.625-5.059,3.391
		c2.789,0.675,4.953,1.919,6.494,3.732c1.54,1.814,2.311,4.006,2.311,6.576c0,3.172-1.131,5.747-3.391,7.725
		c-2.261,1.979-5.223,2.967-8.887,2.967h-8.996v-2.188h8.723c3.099,0,5.537-0.756,7.314-2.27c1.777-1.513,2.666-3.591,2.666-6.234
		c0-2.935-0.93-5.154-2.789-6.658s-4.612-2.256-8.258-2.256h-7.656v-2.023h7c2.861,0,5.19-0.733,6.986-2.201
		c1.795-1.467,2.693-3.358,2.693-5.674c0-2.424-0.825-4.411-2.475-5.961c-1.65-1.549-3.751-2.324-6.303-2.324
		c-3.154,0-5.588,1.035-7.301,3.104c-1.714,2.069-2.57,5.009-2.57,8.818V43H154.816z"/>
	<path d="M187.887,43V16.559h2.297V43H187.887z"/>
	<path d="M196.627,29.793c0-1.841,0.337-3.586,1.012-5.236c0.674-1.649,1.658-3.158,2.953-4.525
		c1.258-1.275,2.693-2.256,4.307-2.939s3.312-1.025,5.1-1.025c1.786,0,3.486,0.342,5.1,1.025s3.049,1.664,4.307,2.939
		c1.275,1.312,2.246,2.799,2.912,4.457c0.665,1.659,0.998,3.428,0.998,5.305c0,1.859-0.333,3.619-0.998,5.277
		c-0.666,1.659-1.637,3.145-2.912,4.457c-1.258,1.295-2.693,2.279-4.307,2.953s-3.313,1.012-5.1,1.012
		c-1.787,0-3.486-0.338-5.1-1.012s-3.049-1.658-4.307-2.953c-1.295-1.349-2.279-2.853-2.953-4.512
		C196.964,33.357,196.627,31.616,196.627,29.793z M199.033,29.738c0,3.245,1.062,5.988,3.186,8.23
		c2.123,2.242,4.717,3.363,7.779,3.363c3.044,0,5.623-1.125,7.738-3.377c2.114-2.251,3.172-4.99,3.172-8.217
		c0-3.263-1.058-6.011-3.172-8.244c-2.115-2.232-4.694-3.35-7.738-3.35c-3.062,0-5.656,1.121-7.779,3.363
		C200.095,23.75,199.033,26.494,199.033,29.738z"/>
</g>
<polyline class="line" points="189.021,11.758 199.493,5.717 209.949,11.579 221.7,3.843 "/>
<g class="grey">
    <circle cx="189.021" cy="11.758" r="1.25"/>
    <circle cx="199.493" cy="5.717" r="1.483"/>
    <circle cx="221.7" cy="3.843" r="2.147"/>
    <circle cx="209.949" cy="11.579" r="1.754"/>
</g>
</svg>
